<svg width="297" height="167" viewBox="0 0 297 167" fill="none" xmlns="http://www.w3.org/2000/svg">
<g clip-path="url(#clip0_37_500)">
<path fill-rule="evenodd" clip-rule="evenodd" d="M144.814 0.766602L135.895 32.5722L127.98 9.68547L115.876 58.5996H173.751L161.652 9.68547L153.73 32.5722L144.818 0.766602H144.814ZM115.876 108.733L127.98 157.642L135.895 134.753L144.814 166.561L153.73 134.753L161.645 157.642L173.751 108.733H115.876Z" fill="#009B9B"/>
<path d="M291.397 86.1346C293.6 86.1346 295.309 87.8811 295.309 90.1131C295.3 91.1479 294.885 92.1379 294.153 92.8696C293.422 93.6014 292.432 94.0163 291.397 94.025C289.231 94.025 287.485 92.2497 287.485 90.0466C287.483 89.5324 287.583 89.0231 287.78 88.5478C287.976 88.0725 288.264 87.6407 288.627 87.2771C288.991 86.9136 289.423 86.6255 289.898 86.4294C290.373 86.2333 290.883 86.1331 291.397 86.1346ZM291.397 85.197C290.102 85.2011 288.862 85.7171 287.947 86.6323C287.032 87.5476 286.516 88.7877 286.512 90.082C286.512 92.7705 288.715 94.967 291.397 94.967C294.085 94.967 296.282 92.7661 296.282 90.1485C296.282 87.3647 294.116 85.197 291.397 85.197ZM290.617 88.5948H291.523C292.201 88.5948 292.363 88.6901 292.363 89.1112C292.363 89.5656 292.17 89.6919 291.521 89.6919H290.617V88.5948ZM289.422 87.4955V92.704H290.617V90.7314H291.492C292.17 90.7314 292.237 90.7979 292.237 91.8286C292.237 92.2851 292.303 92.4115 292.43 92.704H293.85C293.66 92.5711 293.562 92.478 293.562 92.3804C293.533 92.2851 293.467 92.1522 293.467 91.5404C293.467 90.6339 293.372 90.4433 293.01 90.215C293.431 89.8914 293.564 89.6033 293.564 89.0137C293.564 87.8501 292.656 87.4955 291.72 87.4955H289.422ZM290.269 72.8715H272.506V76.85H279.011V94.4506H283.701V76.85H290.266L290.269 72.8715ZM271.035 72.8715H266.504V81.868C266.504 84.0334 266.599 86.1035 266.697 88.0473C266.209 86.979 265.303 85.3588 263.882 83.0671L257.605 72.8715H252.816V94.4572H257.346V85.2702C257.346 81.9389 257.279 80.5115 257.155 79.2194C257.802 80.5758 257.771 80.6423 259.873 84.0401L266.311 94.4572H271.035V72.8693V72.8715ZM250.138 72.8715H233.958V94.4572H250.366V90.4788H238.653V85.2037H249.203V81.4823H238.653V76.8567H250.138V72.8715ZM218.286 76.5929H222.978C225.726 76.5929 226.957 77.4972 226.957 79.5385C226.957 82.0298 224.753 82.5152 222.785 82.5152H218.29V76.5929H218.286ZM213.598 72.8693V94.4572H218.29V85.9772H222.528C225.895 85.9772 226.64 87.0167 226.926 91.5404C227.023 93.2581 227.185 93.9053 227.48 94.4506H232.4L232.207 94.1935C231.884 93.7059 231.691 92.9323 231.56 91.4097C231.17 86.4271 230.558 84.9998 228.162 84.2551C230.33 83.4461 231.596 81.4712 231.596 78.98C231.596 74.3543 227.808 72.8649 224.022 72.8649H213.598V72.8715V72.8693ZM203.983 72.8693H187.804V94.4572H204.212V90.4788H192.498V85.2037H203.048V81.4823H192.498V76.8567H203.983V72.8715V72.8693ZM184.96 82.8388H175.899V86.3008H180.687C180.591 89.2132 178.521 91.1548 175.545 91.1548C171.788 91.1548 169.622 88.4374 169.622 83.7453C169.622 79.0886 171.788 76.3048 175.414 76.3048C177.903 76.3048 179.656 77.6612 180.106 79.9951H184.667C184.18 75.4958 180.394 72.3551 175.443 72.3551C169.232 72.3551 164.864 77.0761 164.864 83.7763C164.864 90.4056 169.004 94.9737 175.024 94.9737C177.808 94.9737 179.811 94.0383 181.462 91.997L181.95 94.4572H184.955V82.8388H184.96ZM162.547 72.8715H157.853V94.4572H162.547V72.8693V72.8715ZM141.591 76.5929H146.283C149.032 76.5929 150.262 77.4972 150.262 79.5385C150.262 82.0298 148.059 82.5152 146.086 82.5152H141.591V76.5929ZM136.897 72.8693V94.4572H141.591V85.9772H145.827C149.196 85.9772 149.938 87.0167 150.226 91.5404C150.322 93.2581 150.484 93.9053 150.778 94.4506H155.699L155.508 94.1935C155.182 93.7059 154.992 92.9323 154.859 91.4097C154.469 86.4271 153.857 84.9998 151.463 84.2551C153.629 83.4461 154.894 81.4712 154.894 78.98C154.894 74.3543 151.109 72.8649 147.321 72.8649H136.897V72.8715V72.8693ZM134.222 72.8693H118.042V94.4572H134.45V90.4788H122.734V85.2037H133.284V81.4823H122.734V76.8567H134.222V72.8715V72.8693ZM116.867 72.8693H111.947L109.161 81.6087C108.061 85.0352 107.319 88.3355 107.055 89.9557C106.796 88.2402 106.117 85.0707 104.983 81.6087L102.168 72.8715H97.2474L104.3 94.4572H109.67L116.867 72.8693ZM97.4047 79.2748C97.0147 74.2945 93.4263 72.3485 89.0865 72.3485C84.0398 72.3485 80.7683 74.9062 80.7683 78.8536C80.7683 83.0914 84.2326 84.2262 87.5993 85.1616C89.603 85.7157 93.4861 86.1989 93.4861 88.433C93.4861 90.215 91.9679 91.3144 89.5365 91.3144C86.6551 91.3144 84.8155 90.0155 84.6825 87.2317H79.9881C80.1211 92.1832 83.4812 94.967 89.3392 94.967C94.8426 94.967 98.2381 92.2851 98.2381 87.9831C98.2381 83.5835 93.8053 82.1539 90.5383 81.3804C88.5346 80.8927 85.3009 80.5403 85.3009 78.499C85.3009 76.9165 86.5953 76.01 88.8294 76.01C91.3185 76.01 92.7481 77.1448 92.9032 79.2814H97.4025L97.4047 79.2748ZM74.1745 90.4721H63.6243V72.8715H58.9299V94.4572H74.1745V90.4721ZM57.4782 90.4721H46.928V72.8715H42.2359V94.4572H57.4782V90.4721ZM30.4135 72.5502C31.0917 72.5502 31.6747 73.1309 31.6747 73.8468C31.6753 74.1845 31.5437 74.5092 31.308 74.7511C31.0723 74.993 30.7512 75.133 30.4135 75.1411C30.2428 75.1435 30.0733 75.1117 29.915 75.0475C29.7568 74.9833 29.613 74.8881 29.4922 74.7675C29.3713 74.6468 29.2758 74.5032 29.2114 74.3451C29.147 74.1869 29.1148 74.0175 29.1169 73.8468C29.1154 73.6761 29.148 73.5068 29.2126 73.3488C29.2772 73.1909 29.3727 73.0473 29.4934 72.9266C29.6141 72.8059 29.7576 72.7105 29.9156 72.6458C30.0736 72.5812 30.2428 72.5487 30.4135 72.5502ZM33.2284 86.1723H27.5034L28.8953 82.2891C29.7708 79.7336 30.0301 78.9866 30.3825 77.6634H30.4135C30.7681 79.0842 31.0319 80.0217 31.8365 82.2891L33.2284 86.1723ZM30.449 70.0234C28.3124 70.0234 26.5968 71.7079 26.5968 73.8091C26.5968 74.4208 26.7298 75.0059 26.9869 75.5268L19.7725 94.455H24.6264L26.3752 89.6277H34.3986L36.1141 94.4528H41.0656L33.8467 75.4581C34.075 74.9749 34.2014 74.4208 34.2014 73.8401C34.2014 71.77 32.4837 70.0234 30.449 70.0234ZM18.5801 72.8738H13.8857V81.09H5.05326V72.8738H0.358887V94.4594H5.05326V85.0729H13.8857V94.4594H18.5801V72.8738Z" fill="black"/>
</g>
<defs>
<clipPath id="clip0_37_500">
<rect width="297" height="166.231" fill="white" transform="translate(0 0.384766)"/>
</clipPath>
</defs>
</svg>
